<svg fill="none" viewBox="0 0 48 48" xmlns="http://www.w3.org/2000/svg">
<path d="m24 2.4c0-1.3255 1.0772-2.4124 2.3961-2.2801 3.9001 0.39132 7.6582 1.7336 10.938 3.9248 3.9468 2.6372 7.0229 6.3855 8.8394 10.771s2.2918 9.211 1.3657 13.867c-0.926 4.6555-3.2118 8.9319-6.5682 12.288-3.3565 3.3564-7.6329 5.6422-12.288 6.5682-4.6556 0.9261-9.4812 0.4508-13.867-1.3657s-8.1337-4.8926-10.771-8.8394c-2.1912-3.2794-3.5335-7.0374-3.9248-10.938-0.13233-1.3189 0.95463-2.3961 2.2801-2.3961s2.3845 1.0787 2.5498 2.3938c0.37058 2.9492 1.4225 5.7836 3.086 8.2731 2.1097 3.1575 5.1083 5.6184 8.6167 7.0716 3.5083 1.4532 7.3688 1.8334 11.093 1.0926 3.7245-0.7409 7.1456-2.5695 9.8308-5.2546 2.6851-2.6852 4.5137-6.1063 5.2546-9.8308 0.7408-3.7244 0.3606-7.5849-1.0926-11.093-1.4532-3.5084-3.9141-6.507-7.0715-8.6167-2.4896-1.6635-5.324-2.7154-8.2732-3.086-1.3151-0.16526-2.3938-1.2243-2.3938-2.5498z" fill="#00BDD3"/>
</svg>
