<svg viewBox="0 0 104 26" xmlns="http://www.w3.org/2000/svg">
<path d="m28.779 22.604c0.1381 0.9942-0.2382 1.9437-0.9196 2.5388-0.1265 0.1118-0.2636 0.2099-0.4097 0.2942-0.1324 0.0753-0.2705 0.1402-0.4166 0.1915-0.3315 0.1174-0.6768 0.1607-1.0164 0.1391-0.0092 0-0.0184 0-0.0276-0.0023-0.6836-0.049-1.342-0.3591-1.8081-0.855-0.7561-0.8037-0.7343-1.8024-0.7252-2.011 0-0.1004 0.0047-0.1983 0.0162-0.2953h-8.2178c0.0116 0.097 0.0162 0.1949 0.0162 0.2953 0.0092 0.2086 0.0311 1.2073-0.7251 2.011-0.4662 0.4959-1.1245 0.806-1.8081 0.855-0.0093 0.0023-0.0185 0.0023-0.0277 0.0023-0.3395 0.0216-0.6848-0.0217-1.0162-0.1391-0.1462-0.0513-0.2844-0.1162-0.4167-0.1915-0.1462-0.0843-0.2831-0.1824-0.4098-0.293-0.0011 0-0.0011-0.0012-0.0011-0.0012-0.6802-0.5962-1.0566-1.5446-0.91846-2.5388h-2.9602c0.01956-0.073 0.04028-0.147 0.05984-0.22 0.3683-1.3555 0.73661-2.7121 1.1049-4.0677l0.2417-0.0114 2.8278-0.1253c0.1278-0.0057 0.2256-0.1118 0.2199-0.2372-0.0058-0.1266-0.1105-0.2246-0.2406-0.2177l-2.6817 0.1185-0.24053 0.0114c0.1335-0.4947 0.26816-0.9884 0.40167-1.482l0.23364 0.0194 2.2708 0.188h0.0196c0.1185 0 0.2198-0.09 0.229-0.2086 0.0104-0.1253-0.0829-0.236-0.2095-0.2463l-2.1879-0.1812-0.23364-0.0194c0.13581-0.5004 0.27163-1.0009 0.40744-1.5003l0.21637 0.0832 2.1545 0.8243c0.0265 0.0103 0.0553 0.016 0.0829 0.016 0.0921 0 0.1795-0.0559 0.2141-0.1459 0.046-0.1175-0.0127-0.2497-0.1313-0.2953l-2.1994-0.8426-0.21638-0.082c1.1936-4.3937 2.3882-8.7874 3.5818-13.18 0.8621 2.6266 1.7229 5.2533 2.5838 7.8788 0.6078-0.30553 2.0246-0.93141 3.8591-0.90291h0.0162c1.8345-0.0285 3.2514 0.59738 3.8591 0.90291 0.8609-2.6255 1.7218-5.2522 2.5839-7.8788 1.1935 4.3926 2.3882 8.7863 3.5817 13.18l-0.2163 0.082-2.1995 0.8426c-0.1186 0.0456-0.1784 0.1778-0.1324 0.2953 0.0357 0.09 0.1232 0.1459 0.2153 0.1459 0.0276 0 0.0552-0.0057 0.0828-0.016l2.1546-0.8243 0.2164-0.0832c0.1357 0.4994 0.2716 0.9999 0.4074 1.5003l-0.2337 0.0194-2.1879 0.1812c-0.1266 0.0103-0.221 0.121-0.2107 0.2463 0.0104 0.1186 0.1117 0.2086 0.2291 0.2086h0.0196l2.272-0.188 0.2336-0.0194c0.1336 0.4936 0.2681 0.9873 0.4017 1.482l-0.2406-0.0114-2.6828-0.1185c-0.13-0.0047-0.2348 0.0911-0.2405 0.2177-0.0059 0.1254 0.0932 0.2315 0.2198 0.2372l2.829 0.1253 0.2417 0.0114c0.3683 1.3556 0.7366 2.7122 1.1049 4.0677 0.0196 0.073 0.0403 0.147 0.0598 0.22h-2.9602z" fill="#F4E041"/>
<path d="m32.038 22.832-0.0599-0.2189-0.0622-0.2292-1.1026-4.0574-0.2394-0.0102-0.2416-0.0114 1.106 4.071h-2.9246l0.0357 0.2589c0.1093 0.7831-0.1255 1.5424-0.5962 2.0896-0.0898 0.1049-0.1887 0.2018-0.2947 0.2884-0.0321 0.0274-0.0656 0.0536-0.0989 0.0776-0.0691 0.0524-0.1404 0.0992-0.2153 0.1413-0.1231 0.0719-0.2531 0.1334-0.3901 0.1813-0.2279 0.0809-0.465 0.1242-0.7032 0.1311-0.0784 0.0023-0.1566 0-0.2348-0.0046-0.076-0.0045-0.152-0.0137-0.2279-0.0262-0.5387-0.0855-1.0531-0.3477-1.4398-0.7592-0.6423-0.683-0.678-1.5174-0.663-1.8549 0-0.0991 0.0046-0.187 0.0138-0.2691l0.0299-0.2542h-8.7345l0.0299 0.2542c0.0093 0.0821 0.015 0.17 0.015 0.2782 0.0138 0.3284-0.0219 1.1628-0.6642 1.8458-0.3866 0.4115-0.9011 0.6737-1.4386 0.7592-0.0759 0.0125-0.1519 0.0217-0.2279 0.0262-0.0782 0.0046-0.1564 0.0069-0.2348 0.0046-0.2393-0.0069-0.4764-0.0502-0.7043-0.1311-0.1358-0.0479-0.2659-0.1083-0.3879-0.1801h-0.0012c-0.0748-0.0423-0.1473-0.0901-0.2163-0.1425-0.0334-0.024-0.0668-0.0502-0.099-0.0776-0.1059-0.0866-0.2049-0.1835-0.2947-0.2884-0.4707-0.5472-0.7055-1.3065-0.5961-2.0896l0.0356-0.2589h-2.9234l1.1061-4.071-0.2417 0.0114-0.24055 0.0102-1.1026 4.0574-0.06215 0.2292-0.05985 0.2189h3.0063c-0.07595 1.3395 0.7021 2.5799 1.9221 3.0108 1.0624 0.3762 2.3076 0.0639 3.0984-0.7775 0.7607-0.8095 0.8033-1.7921 0.7872-2.1661 0-0.0228-0.0011-0.0456-0.0011-0.0672h7.7263v0.057c-0.0173 0.3842 0.0252 1.3668 0.7861 2.1763 0.5685 0.6042 1.3695 0.9348 2.1694 0.9348 0.3143 0 0.6285-0.0513 0.9289-0.1573 1.22-0.4309 1.998-1.6713 1.9221-3.0108h3.0063zm-23.359-6.4596-0.23364-0.0193-0.40973 1.5117 0.2417-0.0103 0.24055-0.0113 0.39476-1.4514-0.23364-0.0194zm17.155-16.372-0.2407 0.73076c-0.7181 2.1911-1.4374 4.3823-2.1556 6.5723l-0.3464 1.0568c-0.8759-0.40813-2.1743-0.83793-3.7211-0.81057h-0.0126c-1.5515-0.02507-2.8498 0.40244-3.7256 0.81057l-0.3465-1.0568c-0.7182-2.19-1.4364-4.3812-2.1557-6.5723l-0.2405-0.73076-3.7763 13.898 0.21639 0.0833 0.21637 0.082 3.3861-12.462c0.6388 1.9483 1.2776 3.8955 1.9152 5.8427l0.5122 1.5596 0.2394-0.12085c0.824-0.41497 2.1488-0.90746 3.7555-0.87782h0.0195c1.6114-0.02736 2.9269 0.46285 3.751 0.87782l0.2405 0.12085 0.5111-1.5596c0.6376-1.9472 1.2763-3.8944 1.9163-5.8427l3.386 12.462 0.2164-0.082 0.2153-0.0833-3.7762-13.898zm-16.842 14.341-0.4247 1.564 0.46728 0.0388 0.39018-1.4364-0.43276-0.1664zm20.739 1e-3 -0.2152 0.0822-0.2164 0.0832 0.3902 1.4364 0.2336-0.0194 0.2326-0.0182-0.4248-1.5642zm0.5467 2.0111-0.2324 0.0193-0.2338 0.0194 0.3949 1.4514 0.2405 0.0113 0.2405 0.0103-0.4097-1.5117z" fill-opacity=".87"/>
<path d="m21.187 14.949c-0.2705 0-0.4891-0.2167-0.4891-0.4846v-2.9367c0-0.2679 0.2186-0.4845 0.4891-0.4845 0.2704 0 0.4891 0.2166 0.4891 0.4845v2.9367c0 0.2668-0.2187 0.4846-0.4891 0.4846z" fill-opacity=".87"/>
<path d="m17.826 14.436c-0.2682 0.0284-0.5099-0.1643-0.5387-0.431l-0.2383-2.2162c-0.0287-0.2657 0.1658-0.5051 0.4351-0.5336 0.2682-0.0285 0.5099 0.1642 0.5387 0.431l0.2382 2.2162c0.0288 0.2667-0.1657 0.505-0.435 0.5336z" fill-opacity=".87"/>
<path d="m11.875 15.201c-0.0345 0.0901-0.122 0.1459-0.2141 0.1459-0.0276 0-0.0564-0.0056-0.0829-0.0159l-2.1545-0.8243-0.21639-0.0832-0.21638-0.0832-3.1306-1.1982c-0.1197-0.0456-0.17839-0.1778-0.13236-0.2953 0.04604-0.1174 0.17955-0.1755 0.2981-0.1299l3.0857 1.181 0.21638 0.0832 0.21637 0.0821 2.1995 0.8426c0.1185 0.0456 0.1772 0.1778 0.1312 0.2952z" fill-opacity=".87"/>
<path d="m11.43 16.371c-0.0092 0.1186-0.1104 0.2087-0.229 0.2087h-0.0196l-2.2708-0.1881-0.46728-0.0388-3.3711-0.2793c-0.12661-0.0103-0.22099-0.1208-0.20947-0.2463 0.01034-0.1253 0.11969-0.2189 0.24859-0.2074l3.454 0.285 0.23364 0.0193 0.23364 0.0194 2.188 0.1813c0.1266 0.0102 0.2198 0.1209 0.2094 0.2462z" fill-opacity=".87"/>
<path d="m11.439 17.942c0.0058 0.1255-0.0921 0.2314-0.2198 0.2371l-2.8279 0.1254-0.2417 0.0115-0.24055 0.0102-2.8141 0.1255h-0.01036c-0.122 0-0.22442-0.0959-0.22903-0.2178-0.00575-0.1266 0.09208-0.2326 0.21867-0.2383l2.9602-0.1311 0.24169-0.0102 0.24056-0.0114 2.6817-0.1186c0.13-0.0069 0.2348 0.0912 0.2405 0.2177z" fill-opacity=".87"/>
<path d="m32.862 13.142-3.1317 1.1993-0.2153 0.0821-0.2163 0.0832-2.1546 0.8243c-0.0276 0.0103-0.0553 0.0159-0.0829 0.0159-0.092 0-0.1796-0.0558-0.2152-0.1459-0.046-0.1174 0.0138-0.2496 0.1323-0.2952l2.1995-0.8426 0.2165-0.0821 0.2151-0.0832 3.0868-1.181c0.1174-0.0456 0.2521 0.0125 0.2982 0.1299 0.0449 0.1175-0.0138 0.2497-0.1324 0.2953z" fill-opacity=".87"/>
<path d="m33.857 15.827c0.0103 0.1254-0.0841 0.236-0.2107 0.2462l-3.3711 0.2794-0.2325 0.0194-0.2337 0.0193-2.2719 0.1881h-0.0196c-0.1174 0-0.2186-0.09-0.229-0.2086-0.0104-0.1254 0.0841-0.236 0.2106-0.2463l2.188-0.1812 0.2336-0.0194 0.2325-0.0182 3.4551-0.2862c0.1266-0.0126 0.2383 0.082 0.2487 0.2075z" fill-opacity=".87"/>
<path d="m33.865 18.234c-0.0059 0.122-0.1071 0.2178-0.2303 0.2178h-0.0104l-2.814-0.1254-0.2394-0.0103-0.2416-0.0114-2.8291-0.1253c-0.1266-0.0058-0.2256-0.1118-0.2199-0.2372 0.0059-0.1266 0.1105-0.2224 0.2406-0.2177l2.6829 0.1185 0.2405 0.0114 0.2405 0.0103 2.9603 0.131c0.1277 0.0057 0.2256 0.1118 0.2199 0.2383z" fill-opacity=".87"/>
<path d="m25.921 23.58c0.0878 0.2508 0.164 0.5564 0.1884 0.9064 0.0288 0.4116-0.0232 0.7695-0.0948 1.0533l-0.0936-1.9597z" fill="#fff"/>
<path d="m26.016 25.767c-0.0184 0-0.0369-0.0023-0.0552-0.0068-0.1231-0.0298-0.1991-0.154-0.168-0.2759 0.0805-0.325 0.1105-0.6556 0.0874-0.9828-0.0196-0.2839-0.0794-0.5689-0.1761-0.8471-0.0415-0.1185 0.0219-0.2485 0.1427-0.2895 0.1209-0.0411 0.2509 0.0216 0.2923 0.1414 0.1105 0.3157 0.1773 0.6406 0.2003 0.9644 0.0265 0.3751-0.0081 0.7524-0.1001 1.1241-0.0265 0.1026-0.1209 0.1722-0.2233 0.1722z" fill-opacity=".87"/>
<path d="m27.422 23.489c0.141 0.2246 0.2636 0.4981 0.3018 0.8116 0.0462 0.3683-0.037 0.6887-0.1515 0.944l-0.1503-1.7556z" fill="#fff"/>
<path d="m27.572 25.472c-0.0311 0-0.0622-0.0068-0.0933-0.0194-0.1163-0.0513-0.1692-0.1858-0.1174-0.3009 0.122-0.2736 0.1658-0.5507 0.1323-0.8243-0.0299-0.2394-0.1196-0.4811-0.2681-0.7194-0.0667-0.1071-0.0334-0.2474 0.0748-0.3135s0.2498-0.033 0.3166 0.0741c0.1841 0.2941 0.2957 0.5986 0.3337 0.9041 0.0437 0.3557-0.0127 0.7137-0.1681 1.0636-0.038 0.0856-0.1219 0.1357-0.2105 0.1357z" fill-opacity=".87"/>
<path d="m12.803 23.58c-0.0878 0.2508-0.1641 0.5564-0.1884 0.9064-0.0289 0.4116 0.0231 0.7695 0.0947 1.0533l0.0937-1.9597z" fill="#fff"/>
<path d="m12.707 25.767c-0.1034 0-0.1967-0.0697-0.2232-0.1733-0.0921-0.3705-0.1266-0.749-0.1002-1.1242 0.0219-0.3248 0.0898-0.6487 0.2003-0.9644 0.0415-0.1186 0.1727-0.1825 0.2923-0.1414 0.1198 0.041 0.1842 0.171 0.1428 0.2896-0.0967 0.2781-0.1566 0.562-0.1761 0.847-0.023 0.3272 0.0069 0.6579 0.0875 0.9828 0.0299 0.122-0.0449 0.2462-0.168 0.2759-0.0185 0.0057-0.0369 8e-3 -0.0554 8e-3z" fill-opacity=".87"/>
<path d="m11.302 23.489c-0.141 0.2246-0.2635 0.4981-0.3017 0.8116-0.0462 0.3683 0.037 0.6887 0.1514 0.944l0.1503-1.7556z" fill="#fff"/>
<path d="m11.151 25.472c-0.0886 0-0.1727-0.0513-0.2106-0.1357-0.1554-0.3489-0.213-0.7068-0.1681-1.0636 0.038-0.3055 0.1496-0.6088 0.3338-0.9041 0.0668-0.1071 0.2083-0.1402 0.3165-0.0741s0.1416 0.2064 0.0748 0.3135c-0.1485 0.2372-0.2382 0.48-0.2682 0.7194-0.0333 0.2736 0.0104 0.5507 0.1324 0.8243 0.0518 0.1151-0.0011 0.2496-0.1174 0.3009-0.0311 0.0137-0.0621 0.0194-0.0932 0.0194z" fill-opacity=".87"/>
<path d="m8.3553 22.798h-8.1104c-0.13466 0-0.24484-0.0874-0.24484-0.194 0-0.1068 0.11018-0.1941 0.24484-0.1941h8.1104c0.13466 0 0.24484 0.0873 0.24484 0.1941 0 0.1066-0.11018 0.194-0.24484 0.194z" fill-opacity=".87"/>
<path d="m37.885 22.84h-7.6251c-0.1266 0-0.2302-0.1025-0.2302-0.228 0-0.1253 0.1036-0.228 0.2302-0.228h7.6251c0.1266 0 0.2301 0.1027 0.2301 0.228 0 0.1255-0.1024 0.228-0.2301 0.228z" fill-opacity=".87"/>
<path d="m21.704 18.644c-0.1658 0.4263-0.5491 0.888-1.0359 0.9577-0.45 0.0626-0.8644-0.1757-1.1624-0.5462-0.0288 0.0786-0.0645 0.1596-0.1105 0.2405-0.0749 0.1324-0.4765 0.7866-1.1464 0.7866h-0.0184c-0.6376-0.0113-1.1911-0.587-1.2878-1.3406-0.015-0.1254 0.0736-0.2394 0.2001-0.2543 0.1244-0.0159 0.2418 0.073 0.2568 0.1973 0.0737 0.5814 0.4845 0.9359 0.8389 0.9417h0.0093c0.4224 0 0.7136-0.4959 0.7458-0.5529 0.1588-0.2828 0.1553-0.5724 0.1266-0.7627-0.0103-0.0353-0.0196-0.0707-0.0288-0.106-0.443 0.0513-0.8252-0.1026-0.8954-0.3832-0.0794-0.3191 0.2763-0.6816 0.7953-0.8093 0.5202-0.1277 1.0059 0.0273 1.0853 0.3466 0.0668 0.2633-0.1623 0.5551-0.5352 0.7216 0.0115 0.0421 0.0219 0.0924 0.0311 0.147 0.1864 0.6134 0.663 0.9725 1.0312 0.9223 0.2855-0.0411 0.5536-0.3683 0.6699-0.6692 0.099-0.2554 0.0852-0.4959 0.0564-0.6521-0.0218-0.1242 0.061-0.2428 0.1853-0.2656 0.1266-0.0217 0.2451 0.0604 0.2682 0.1835 0.0392 0.2144 0.0575 0.5427-0.0794 0.8973z" fill-opacity=".87"/>
<path d="m43.807 18.588c-0.3934 0-0.5902-0.1084-0.5902-0.3252v-8.9277h-2.8328c-0.0984 0-0.1722-0.03449-0.2214-0.10347-0.0491-0.06898-0.0737-0.1823-0.0737-0.33996v-0.2365c0-0.15766 0.0246-0.27098 0.0737-0.33996 0.0492-0.06898 0.123-0.10347 0.2214-0.10347h6.9199c0.1082 0 0.1819 0.03449 0.2213 0.10347 0.0492 0.06898 0.0737 0.1823 0.0737 0.33996v0.2365c0 0.15766-0.0245 0.27098-0.0737 0.33996-0.0394 0.06898-0.1131 0.10347-0.2213 0.10347h-2.7887v8.9277c0 0.2168-0.1967 0.3252-0.5901 0.3252h-0.1181zm5.9731-0.0296c-0.1574 0-0.2705-0.0345-0.3394-0.1034-0.0688-0.069-0.1032-0.1823-0.1032-0.34v-9.4598c0-0.15766 0.0344-0.27098 0.1032-0.33996 0.0689-0.06898 0.182-0.10347 0.3394-0.10347h5.1494c0.1081 0 0.1819 0.03449 0.2213 0.10347 0.0491 0.06898 0.0738 0.1823 0.0738 0.33996v0.2365c0 0.15766-0.0247 0.27098-0.0738 0.33996-0.0394 0.06898-0.1132 0.10347-0.2213 0.10347h-4.2936v3.3701h3.8509c0.1082 0 0.182 0.0344 0.2213 0.1034 0.0492 0.069 0.0738 0.1823 0.0738 0.34v0.2365c0 0.1576-0.0246 0.271-0.0738 0.3399-0.0393 0.069-0.1131 0.1035-0.2213 0.1035h-3.8509v3.6066h4.3083c0.1082 0 0.1819 0.0345 0.2213 0.1034 0.0492 0.069 0.0738 0.1823 0.0738 0.34v0.2365c0 0.1577-0.0246 0.271-0.0738 0.34-0.0394 0.0689-0.1131 0.1034-0.2213 0.1034h-5.1641zm9.7661 0.0887c-0.5902 0-1.1361-0.069-1.6378-0.2069-0.5016-0.138-0.8804-0.3055-1.1361-0.5026-0.1869-0.1379-0.2803-0.2611-0.2803-0.3695 0-0.1182 0.0639-0.2808 0.1918-0.4878 0.1376-0.2069 0.2458-0.3104 0.3246-0.3104 0.0392 0 0.1425 0.0493 0.3098 0.1478 0.3049 0.1675 0.6295 0.3104 0.9738 0.4287 0.3541 0.1182 0.7721 0.1774 1.2542 0.1774 0.5704 0 1.0328-0.1577 1.3869-0.473 0.3639-0.3252 0.5459-0.7489 0.5459-1.2712 0-0.3646-0.0984-0.6651-0.2951-0.9016-0.1968-0.2464-0.4377-0.4385-0.7229-0.5765-0.2755-0.1478-0.6788-0.3252-1.2099-0.5321-0.5706-0.2267-1.0231-0.4336-1.3574-0.6208-0.3345-0.1872-0.6197-0.4631-0.8558-0.8278-0.2361-0.3744-0.3541-0.8622-0.3541-1.4633 0-0.5321 0.1328-1.0051 0.3984-1.4189 0.2753-0.41387 0.6589-0.73413 1.1508-0.96077 0.5017-0.23649 1.0771-0.35474 1.7263-0.35474 0.3343 0 0.7082 0.04927 1.1214 0.14781 0.4131 0.08868 0.7327 0.21186 0.959 0.36952 0.1967 0.11825 0.2951 0.24635 0.2951 0.38431 0 0.10839-0.064 0.26606-0.1918 0.47299-0.1181 0.20693-0.2116 0.3104-0.2804 0.3104-0.0492 0-0.123-0.02464-0.2213-0.0739-0.0885-0.04927-0.1475-0.08377-0.177-0.10347-0.4919-0.25621-1.0033-0.38431-1.5345-0.38431-0.5706 0-1.0328 0.14781-1.3869 0.44343-0.3444 0.29562-0.5164 0.70457-0.5164 1.2269 0 0.335 0.0835 0.606 0.2508 0.8129 0.177 0.2069 0.3737 0.3646 0.5902 0.473 0.2262 0.0985 0.6146 0.2562 1.1656 0.473 0.5902 0.2266 1.072 0.4483 1.4459 0.6651 0.3738 0.207 0.6885 0.5124 0.9443 0.9165 0.2656 0.3941 0.3984 0.9016 0.3984 1.5224 0 0.8869-0.2951 1.5865-0.8853 2.0989s-1.3869 0.7686-2.3902 0.7686zm7.7904-0.0591c-0.3935 0-0.5902-0.1084-0.5902-0.3252v-8.9277h-2.8329c-0.0984 0-0.1722-0.03449-0.2213-0.10347-0.0493-0.06898-0.0738-0.1823-0.0738-0.33996v-0.2365c0-0.15766 0.0245-0.27098 0.0738-0.33996 0.0491-0.06898 0.1229-0.10347 0.2213-0.10347h6.9199c0.1082 0 0.182 0.03449 0.2214 0.10347 0.0491 0.06898 0.0737 0.1823 0.0737 0.33996v0.2365c0 0.15766-0.0246 0.27098-0.0737 0.33996-0.0394 0.06898-0.1132 0.10347-0.2214 0.10347h-2.7886v8.9277c0 0.2168-0.1968 0.3252-0.5902 0.3252h-0.118zm8.0976 0c-0.3934 0-0.5902-0.1084-0.5902-0.3252v-8.9277h-2.8329c-0.0982 0-0.172-0.03449-0.2213-0.10347-0.0491-0.06898-0.0738-0.1823-0.0738-0.33996v-0.2365c0-0.15766 0.0247-0.27098 0.0738-0.33996 0.0493-0.06898 0.1231-0.10347 0.2213-0.10347h6.9199c0.1083 0 0.1821 0.03449 0.2214 0.10347 0.0492 0.06898 0.0737 0.1823 0.0737 0.33996v0.2365c0 0.15766-0.0245 0.27098-0.0737 0.33996-0.0393 0.06898-0.1131 0.10347-0.2214 0.10347h-2.7886v8.9277c0 0.2168-0.1967 0.3252-0.5902 0.3252h-0.118zm4.3052 0c-0.4228 0-0.6344-0.0838-0.6344-0.2513 0-0.0493 0.0148-0.1182 0.0443-0.2069l3.4968-9.7111c0.059-0.15767 0.2558-0.2365 0.5902-0.2365h0.4279c0.3541 0 0.5509 0.07883 0.5901 0.2365l3.4969 9.7259c0.0295 0.0689 0.0442 0.133 0.0442 0.1921 0 0.1675-0.2114 0.2513-0.6344 0.2513h-0.118c-0.3443 0-0.5409-0.0788-0.5902-0.2365l-0.8705-2.4241h-4.3379l-0.841 2.4241c-0.0491 0.1577-0.2458 0.2365-0.5902 0.2365h-0.0738zm5.4445-3.7839-1.5492-4.4048c-0.0492-0.1576-0.1082-0.44341-0.1771-0.85728h-0.0295c-0.0787 0.39417-0.1524 0.67988-0.2213 0.85728l-1.5493 4.4048h3.5264zm6.393 3.843c-0.5902 0-1.1361-0.069-1.6378-0.2069-0.5016-0.138-0.8804-0.3055-1.1361-0.5026-0.1869-0.1379-0.2803-0.2611-0.2803-0.3695 0-0.1182 0.0639-0.2808 0.1918-0.4878 0.1377-0.2069 0.2458-0.3104 0.3246-0.3104 0.0393 0 0.1425 0.0493 0.3099 0.1478 0.3048 0.1675 0.6294 0.3104 0.9738 0.4287 0.3541 0.1182 0.7721 0.1774 1.2541 0.1774 0.5704 0 1.0328-0.1577 1.3869-0.473 0.3639-0.3252 0.5459-0.7489 0.5459-1.2712 0-0.3646-0.0984-0.6651-0.295-0.9016-0.1969-0.2464-0.4378-0.4385-0.723-0.5765-0.2755-0.1478-0.6787-0.3252-1.2099-0.5321-0.5706-0.2267-1.0231-0.4336-1.3576-0.6208-0.3343-0.1872-0.6195-0.4631-0.8556-0.8278-0.2361-0.3744-0.3541-0.8622-0.3541-1.4633 0-0.5321 0.1328-1.0051 0.3984-1.4189 0.2753-0.41387 0.6589-0.73413 1.1508-0.96077 0.5017-0.23649 1.0771-0.35474 1.7263-0.35474 0.3344 0 0.7082 0.04927 1.1214 0.14781 0.4131 0.08868 0.7327 0.21186 0.959 0.36952 0.1967 0.11825 0.2951 0.24635 0.2951 0.38431 0 0.10839-0.064 0.26606-0.1918 0.47299-0.118 0.20693-0.2116 0.3104-0.2803 0.3104-0.0493 0-0.1231-0.02464-0.2214-0.0739-0.0885-0.04927-0.1475-0.08377-0.177-0.10347-0.4919-0.25621-1.0033-0.38431-1.5345-0.38431-0.5705 0-1.0328 0.14781-1.3869 0.44343-0.3444 0.29562-0.5164 0.70457-0.5164 1.2269 0 0.335 0.0835 0.606 0.2508 0.8129 0.1771 0.2069 0.3737 0.3646 0.5902 0.473 0.2262 0.0985 0.6147 0.2562 1.1656 0.473 0.5902 0.2266 1.0721 0.4483 1.4459 0.6651 0.3738 0.207 0.6885 0.5124 0.9443 0.9165 0.2656 0.3941 0.3984 0.9016 0.3984 1.5224 0 0.8869-0.2951 1.5865-0.8853 2.0989-0.5901 0.5124-1.3869 0.7686-2.3902 0.7686zm5.7985-0.0591c-0.3935 0-0.5901-0.1084-0.5901-0.3252v-9.7554c0-0.21679 0.1966-0.32518 0.5901-0.32518h0.1181c0.3933 0 0.5902 0.10839 0.5902 0.32518v4.523h0.059l3.6293-4.6412c0.108-0.13796 0.374-0.20694 0.797-0.20694h0.148c0.167 0 0.295 0.01971 0.383 0.05913 0.089 0.02956 0.133 0.0739 0.133 0.13302 0 0.08869-0.049 0.18723-0.148 0.29562l-3.6882 4.6117 4.4702 4.863c0.089 0.0985 0.133 0.1773 0.133 0.2365 0 0.0788-0.049 0.133-0.147 0.1625-0.099 0.0296-0.266 0.0444-0.502 0.0444h-0.177c-0.216 0-0.389-0.0099-0.516-0.0296-0.118-0.0197-0.217-0.0739-0.296-0.1626l-4.2193-4.7594h-0.059v4.6264c0 0.2168-0.1969 0.3252-0.5902 0.3252h-0.1181z" fill-opacity=".87"/>
</svg>
