<svg fill="none" viewBox="0 0 70 70" xmlns="http://www.w3.org/2000/svg">
<path d="m34.952 70c-19.322 0.0018-35.028-15.758-34.952-35.07 0.077395-19.351 15.724-34.964 35.004-34.93 19.354 0.035999 34.939 15.593 34.995 34.937 0.0576 19.368-15.632 35.063-35.047 35.063zm-23.708-12.445c12.905 13.766 34.916 13.51 47.47 9e-3 -0.2646-0.306-0.5165-0.6336-0.8063-0.9252-1.3068-1.314-2.8547-2.3021-4.5268-3.0473-2.185-0.9738-4.4367-1.8-6.6434-2.7251-1.0457-0.4392-2.0914-0.9018-3.0742-1.4634-1.1213-0.639-1.8485-1.6001-1.8809-2.9717-0.0252-1.107-0.0612-2.2157-0.1116-3.3227-0.0341-0.72 0.162-1.3374 0.6102-1.9152 1.7027-2.2049 2.5901-4.7086 2.6063-7.5021 0.0018-0.4392 0.1853-0.7056 0.5165-0.9666 0.738-0.585 1.3931-1.2744 1.5911-2.2265 0.2124-1.0224 0.3636-2.0628 0.4608-3.1049 0.0792-0.8478-0.0126-1.6758-1.0907-1.764 0.1512-1.2798 0.3509-2.4623 0.4211-3.6503 0.1404-2.4263-0.1224-4.7968-1.3445-6.964-1.0529-1.8665-2.6404-2.8907-4.8111-2.9735-0.288-0.0108-0.5831-0.099-0.8585-0.1944-2.7503-0.945-5.5905-1.2348-8.4217-0.6696-5.5113 1.098-8.8087 5.8355-8.1463 11.475 0.1152 0.9738 0.3005 1.9385 0.4643 2.9825-0.7559 0.0396-1.2005 0.4752-1.1861 1.1952 0.0396 2.1401 0.0792 4.3036 1.9727 5.8138 0.4734 0.378 0.594 0.8532 0.6426 1.4112 0.0683 0.8009 0.1601 1.6037 0.2879 2.3975 0.2988 1.8647 1.386 3.3533 2.3615 4.8994 0.2412 0.3834 0.4374 0.8658 0.4554 1.3104 0.0486 1.2258 0 2.4551-0.027 3.6827-0.027 1.2312-0.5922 2.1815-1.5983 2.8637-0.4698 0.3186-0.9504 0.6408-1.4687 0.8604-1.2384 0.5274-2.4965 1.0134-3.7564 1.4867-2.6099 0.9828-5.1945 2.016-7.5146 3.6035-0.9719 0.6642-1.8701 1.404-2.5936 2.3958z" fill="#D0CFCF"/>
</svg>
